<svg xmlns="http://www.w3.org/2000/svg" width="17" height="21" fill="none" viewBox="0 0 17 21"><path fill="url(#paint0_diamond)" d="M17 20C17 20.5523 16.5523 21 16 21H11C10.4477 21 10 20.5523 10 20L10 1C10 0.447715 10.4477 0 11 0L16 0C16.5523 0 17 0.447715 17 1L17 20Z"/><path fill="url(#paint1_diamond)" d="M0 1C0 0.447715 0.447715 3.0261e-07 1 3.0261e-07H6C6.55228 3.0261e-07 7 0.447716 7 1L7 20C7 20.5523 6.55228 21 6 21H1C0.447715 21 0 20.5523 0 20L0 1Z"/><defs><radialGradient id="paint0_diamond" cx="0" cy="0" r="1" gradientTransform="translate(9.91986e-07 11.55) rotate(-5.57864) scale(21.6023 24.598)" gradientUnits="userSpaceOnUse"><stop offset=".063" stop-color="#3E86AE"/><stop offset=".449" stop-color="#58C7EF"/><stop offset="1" stop-color="#4381A8"/></radialGradient><radialGradient id="paint1_diamond" cx="0" cy="0" r="1" gradientTransform="translate(17 9.45) rotate(174.421) scale(21.6023 24.598)" gradientUnits="userSpaceOnUse"><stop offset=".063" stop-color="#3E86AE"/><stop offset=".449" stop-color="#58C7EF"/><stop offset="1" stop-color="#4381A8"/></radialGradient></defs></svg>